HIERARCHY
ROOT pelvis
{
	OFFSET 0.000000 0.000000 0.000000
	CHANNELS 6 Xposition Yposition Zposition Zrotation Xrotation Yrotation
	JOINT lfemur
	{
		OFFSET 11.446000 0.000000 0.000000
		CHANNELS 3 Zrotation Xrotation Yrotation
		JOINT ltibia
		{
			OFFSET 0.000000 -42.030400 0.000000
			CHANNELS 3 Zrotation Xrotation Yrotation
			JOINT lfoot
			{
				OFFSET 0.000000 -39.930200 0.000000
				CHANNELS 3 Zrotation Xrotation Yrotation
				JOINT ltoes
				{
					OFFSET 0.000000 0.000000 11.775800
					CHANNELS 3 Zrotation Xrotation Yrotation
					End Site
					{
					    OFFSET 0.000000 0.000000 5.000000
					}
				}
			}
		}
	}
	JOINT rfemur
	{
		OFFSET -11.446000 0.000000 0.000000
		CHANNELS 3 Zrotation Xrotation Yrotation
		JOINT rtibia
		{
			OFFSET 0.000000 -42.030400 0.000000
			CHANNELS 3 Zrotation Xrotation Yrotation
			JOINT rfoot
			{
				OFFSET 0.000000 -39.930200 0.000000
				CHANNELS 3 Zrotation Xrotation Yrotation
				JOINT rtoes
				{
					OFFSET 0.000000 0.000000 11.775800
					CHANNELS 3 Zrotation Xrotation Yrotation
					End Site
					{
					    OFFSET 0.000000 0.000000 5.000000
					}
				}
			}
		}
	}
	JOINT thorax
	{
		OFFSET 0.000000 11.255600 -5.000000
		CHANNELS 3 Zrotation Xrotation Yrotation
		JOINT head
		{
			OFFSET 0.000000 43.799300 0.000000
			CHANNELS 3 Zrotation Xrotation Yrotation
			End Site
			{
			    OFFSET 0.000000 5.000000 0.000000
			}
		}
		JOINT lclavicle
		{
			OFFSET 0.000000 39.863000 0.000000
			CHANNELS 3 Zrotation Xrotation Yrotation
			JOINT lhumerus
			{
				OFFSET 17.380600 4.958300 0.000000
				CHANNELS 3 Zrotation Xrotation Yrotation
				JOINT lradius
				{
					OFFSET 0.000000 -27.561300 0.000000
					CHANNELS 3 Zrotation Xrotation Yrotation
					JOINT lhand
					{
						OFFSET 0.000000 -26.933000 0.000000
						CHANNELS 3 Zrotation Xrotation Yrotation
						End Site
						{
						    OFFSET 0.000000 -5.000000 0.000000
						}
					}
				}
			}
		}
		JOINT rclavicle
		{
			OFFSET 0.000000 39.863000 0.000000
			CHANNELS 3 Zrotation Xrotation Yrotation
			JOINT rhumerus
			{
				OFFSET -17.380600 4.958300 0.000000
				CHANNELS 3 Zrotation Xrotation Yrotation
				JOINT rradius
				{
					OFFSET 0.000000 -27.561300 0.000000
					CHANNELS 3 Zrotation Xrotation Yrotation
					JOINT rhand
					{
						OFFSET 0.000000 -26.933000 0.000000
						CHANNELS 3 Zrotation Xrotation Yrotation
						End Site
						{
						    OFFSET 0.000000 -5.000000 0.000000
						}
					}
				}
			}
		}
	}
}
MOTION
Frames:	20
Frame Time:	0.0333333
-220.218 89.2709 -0.299038 0.676084 0.84045 88.7146 -2.26132 0.257978 0.728086 1.55062 9.67291 10.9169 3.40105 3.14291 0.00303726 4.51239e-015 -5 1.59635e-015 1.59709 3.93609 -1.88502 -0.503497 8.73534 -13.9099 -3.03279 2.34416 -0.163744 -2.43018e-015 -5 3.1927e-015 -2.35545 -0.440412 -0.439869 -1.422 8.91535 -7.25464 1.98785e-016 3.21161e-015 -5.96354e-016 87.226 -3.03254 67.6626 3.86296 -0.103303 -67.6044 1.93854 -6.42233 -9.7332 1.98785e-016 3.21161e-015 -5.96354e-016 -78.5118 5.64192 -37.1124 1.25333 -4.4593 25.8642 -1.77799 -3.19981 9.80117 
-220.245 89.2706 -0.295225 0.654782 0.864999 88.7897 -2.29088 0.210821 0.684092 1.5711 9.66991 10.8921 3.37931 3.18271 0.0026993 -1.98785e-015 -5 -0 1.5572 3.87551 -1.93828 -0.456747 8.79874 -13.9332 -3.03524 2.32293 -0.163884 -1.16786e-015 -5 -0 -2.43593 -0.403043 -0.492172 -1.38501 9.08253 -7.30549 1.98785e-016 1.22998e-015 -5.96354e-016 87.3376 -3.00095 67.4819 3.66365 -0.0831752 -67.1576 2.12487 -5.83999 -9.72454 1.98785e-016 1.22998e-015 -5.96354e-016 -78.4429 5.66089 -37.0354 1.38611 -4.58049 25.2918 -2.34713 -2.37629 9.77588 
-220.26 89.2736 -0.282694 0.66379 0.874342 88.8039 -2.29068 0.215298 0.683952 1.57377 9.65514 10.8737 3.42016 3.20989 0.00264593 1.19271e-015 -5 -0 1.54634 3.87403 -1.9532 -0.437151 8.79671 -13.9582 -3.2296 2.33923 -0.163883 6.90813e-016 -5 -3.1927e-015 -2.45546 -0.307723 -0.502547 -1.42885 9.25515 -7.53235 -1.98785e-016 2.18042e-015 3.97569e-016 87.4035 -3.03936 67.634 3.64874 -0.0693775 -67.2041 2.42997 -5.32998 -9.70518 -1.98785e-016 2.18042e-015 3.97569e-016 -78.4354 5.47846 -37.5957 1.33072 -4.40524 25.8285 -2.9804 -1.6877 9.74937 
-220.268 89.2817 -0.275377 0.715995 0.890744 88.8233 -2.30844 0.303424 0.670715 1.58457 9.55962 10.8703 3.42685 3.28869 0.00259158 1.84872e-015 -5 -1.59635e-015 1.53323 3.94694 -1.98079 -0.428162 8.74729 -13.9446 -3.19073 2.36262 -0.163877 -7.70291e-016 -5 -0 -2.43304 -0.363374 -0.526008 -1.79623 9.5756 -7.95447 -1.98785e-016 4.81432e-015 5.96354e-016 87.3322 -2.99021 67.5123 3.67283 -0.0769932 -67.3064 2.38804 -5.4609 -9.70737 -1.98785e-016 4.81432e-015 5.96354e-016 -78.4187 5.50735 -37.5136 1.23142 -4.34579 25.8269 -2.92672 -1.9094 9.74766 
-220.273 89.2839 -0.269825 0.760158 0.920198 88.8757 -2.33101 0.417424 0.655455 1.58132 9.40166 10.8321 3.433 3.35475 0.00253613 3.04142e-015 -5 -1.59635e-015 1.51132 4.02629 -2.01611 -0.428429 8.68008 -13.9534 -3.14603 2.3825 -0.163865 -2.43018e-015 -5 3.1927e-015 -2.42804 -0.299562 -0.539016 -1.78636 9.72616 -7.86811 1.73065e-032 -4.98825e-015 1.98785e-016 87.3248 -2.99751 67.704 3.79896 -0.116785 -67.4704 2.04079 -5.98225 -9.73041 1.73065e-032 -4.98825e-015 1.98785e-016 -78.4301 5.60034 -37.4229 1.20006 -4.27873 25.6414 -2.89955 -1.98023 9.74386 
-220.29 89.284 -0.257735 0.748667 0.937866 88.8355 -2.34631 0.447597 0.648198 1.583 9.29368 10.8793 3.38374 3.42896 0.00247969 4.77083e-015 -5 -0 1.49756 3.95926 -2.01926 -0.430668 8.75655 -13.922 -3.22935 2.37635 -0.163844 -1.24989e-015 -5 3.1927e-015 -2.44299 -0.381737 -0.494608 -1.72352 9.94198 -7.74511 -3.97569e-016 6.60959e-015 9.93923e-016 87.291 -2.98733 67.8505 3.92487 -0.112143 -67.3673 1.88176 -6.03932 -9.74563 -3.97569e-016 6.60959e-015 9.93923e-016 -78.3808 5.66467 -37.342 1.18344 -4.22817 25.6542 -3.01385 -1.96649 9.74118 
-220.302 89.2842 -0.242262 0.749747 0.925788 88.9 -2.32246 0.348314 0.656105 1.59268 9.46722 10.8002 3.46898 3.38773 0.00242201 1.47097e-015 -5 3.1927e-015 1.51547 3.97402 -2.01435 -0.401065 8.73477 -13.9999 -3.19448 2.3702 -0.163818 8.84664e-016 -5 -6.38541e-015 -2.46118 -0.430226 -0.514754 -1.57306 10.2429 -7.66484 -3.97569e-016 8.65335e-015 -0 87.2594 -2.99263 67.8663 4.01889 -0.106114 -67.601 1.7356 -6.47744 -9.7532 -3.97569e-016 8.65335e-015 -0 -78.3422 5.7705 -37.0569 1.34138 -4.357 24.9038 -3.21069 -1.45741 9.74199 
-220.304 89.2845 -0.225411 0.778729 0.902923 88.8908 -2.27929 0.36179 0.694532 1.58036 9.50124 10.7822 3.46851 3.36935 0.0023635 1.84872e-015 -5 -1.59635e-015 1.57121 4.02694 -1.96248 -0.438472 8.67513 -14.0389 -3.09931 2.40712 -0.163792 2.21641e-015 -5 3.1927e-015 -2.44144 -0.389795 -0.490924 -1.63494 10.2774 -7.81117 2.41817e-032 3.48494e-015 -3.97569e-016 87.2751 -2.93171 67.7819 3.91979 -0.117012 -67.5522 1.98232 -6.4242 -9.72878 2.41817e-032 3.48494e-015 -3.97569e-016 -78.3104 5.79226 -37.2428 1.19688 -4.33353 24.9901 -2.89946 -1.68236 9.755 
-220.298 89.2851 -0.215196 0.844116 0.905069 88.841 -2.2812 0.447163 0.698104 1.58715 9.48046 10.8216 3.38725 3.34349 0.00230413 1.31201e-015 -5 -3.1927e-015 1.56704 4.06398 -1.98293 -0.437056 8.73475 -13.9848 -3.16065 2.37055 -0.163752 -2.51459e-015 -5 -3.1927e-015 -2.44018 -0.31169 -0.457782 -1.6304 10.3509 -7.6951 -0 -3.54085e-016 -0 87.2813 -2.76504 67.7298 3.79529 -0.12435 -67.6541 1.95594 -6.2174 -9.73491 -0 -3.54085e-016 -0 -78.2421 5.78382 -37.2239 1.25548 -4.41251 24.7823 -2.90461 -1.6013 9.7531 
-220.291 89.2856 -0.209767 0.915539 0.89409 88.8428 -2.27408 0.499352 0.706061 1.60041 9.52601 10.8094 3.36007 3.33288 0.00224403 7.95139e-016 -5 -0 1.56428 4.19099 -2.0166 -0.407369 8.62854 -13.9432 -3.25443 2.43313 -0.163719 -9.29426e-016 -5 9.57811e-015 -2.42839 -0.268052 -0.455655 -1.5974 10.4681 -7.70631 -1.98785e-016 -1.05604e-015 3.97569e-016 87.2699 -2.80848 67.766 3.78515 -0.0972649 -67.7418 2.04986 -6.22449 -9.73481 -1.98785e-016 -1.05604e-015 3.97569e-016 -78.1272 5.75843 -37.3241 1.24645 -4.54505 24.7821 -2.94962 -1.39849 9.74889 
-220.301 89.2859 -0.199815 0.937987 0.903967 88.8435 -2.28117 0.520579 0.701482 1.60133 9.51023 10.8266 3.39519 3.37141 0.00218331 1.19271e-015 -5 -0 1.56598 4.17076 -2.0145 -0.418838 8.69387 -13.9397 -3.22122 2.40444 -0.163671 1.73937e-016 -5 -0 -2.47654 -0.344899 -0.450066 -1.45982 10.6513 -7.832 0 5.45415e-015 -0 87.2474 -2.82012 67.7168 3.79731 -0.0905902 -67.6506 2.05911 -6.09759 -9.73223 0 5.45415e-015 -0 -77.9717 5.77869 -37.3536 1.07776 -4.38154 25.4604 -2.80039 -1.95925 9.74841 
-220.326 89.286 -0.181906 0.950519 0.878042 88.8346 -2.23215 0.470007 0.737848 1.58863 9.6073 10.7941 3.36927 3.31955 0.00212172 3.57812e-015 -5 -0 1.5968 4.13605 -1.99835 -0.404002 8.76067 -13.9664 -3.21923 2.3767 -0.163619 -1.01877e-015 -5 -0 -2.44407 -0.351849 -0.424489 -1.43952 10.6347 -7.92845 1.98785e-016 -7.37988e-015 -3.97569e-016 87.1204 -2.85866 67.7377 3.83271 -0.107763 -67.6612 2.00855 -6.06594 -9.7322 1.98785e-016 -7.37988e-015 -3.97569e-016 -77.852 5.73271 -37.3878 1.01293 -4.22679 25.9134 -2.7028 -2.18185 9.74829 
-220.363 89.2859 -0.168969 0.949591 0.866969 88.8597 -2.20107 0.36887 0.761512 1.57688 9.74659 10.7382 3.41191 3.29897 0.0020596 2.24628e-015 -5 -1.59635e-015 1.60244 4.06508 -2.00337 -0.370742 8.86711 -13.9819 -3.19937 2.32551 -0.163559 -1.1231e-015 -5 -3.1927e-015 -2.43363 -0.28384 -0.4179 -1.49342 10.549 -7.98831 -3.97569e-016 -2.33572e-015 1.98785e-016 86.8995 -2.91181 67.8235 3.8145 -0.277512 -67.6136 1.93864 -6.06064 -9.74086 -3.97569e-016 -2.33572e-015 1.98785e-016 -77.6153 5.72622 -37.3066 1.16529 -4.35304 25.5134 -2.9124 -1.9613 9.74697 
-220.391 89.2861 -0.14418 0.980358 0.851677 88.816 -2.15115 0.376252 0.811516 1.54792 9.77278 10.6929 3.40232 3.27225 0.00199691 -1.17288e-015 -5 4.78906e-015 1.64582 4.0398 -1.95814 -0.400903 8.92832 -13.9841 -3.21282 2.3275 -0.163502 -4.47266e-016 -5 -0 -2.43453 -0.218295 -0.380901 -1.4354 10.5211 -7.94533 -3.97569e-016 -1.56543e-015 -3.97569e-016 86.7533 -3.10226 68.0824 3.92222 -0.0949331 -67.8235 2.14195 -6.02876 -9.71969 -3.97569e-016 -1.56543e-015 -3.97569e-016 -77.281 5.64142 -37.3205 1.32726 -4.45521 25.5212 -2.67671 -2.42835 9.7529 
-220.442 89.2859 -0.125823 0.982053 0.831355 88.831 -2.11186 0.276517 0.834701 1.54218 9.90584 10.6621 3.40004 3.25305 0.00193374 2.78299e-015 -5 -0 1.66968 3.98954 -1.94555 -0.378147 8.96906 -14.0181 -3.20063 2.316 -0.16344 5.11943e-016 -5 -6.38541e-015 -2.41296 -0.204176 -0.366855 -1.41569 10.4784 -7.87852 1.98785e-016 2.36678e-015 3.97569e-016 86.4464 -3.31271 68.3458 4.09622 -0.103416 -68.1664 2.05868 -6.03608 -9.72821 1.98785e-016 2.36678e-015 3.97569e-016 -76.8471 5.64535 -37.3291 1.37221 -4.51519 25.8296 -2.14366 -3.08839 9.77554 
-220.467 89.2862 -0.113008 1.03529 0.845746 88.867 -2.11878 0.318944 0.827502 1.55171 9.88359 10.6178 3.29699 3.26514 0.00187019 3.97569e-016 -5 -0 1.66534 4.00738 -1.96105 -0.374206 9.01813 -14.0399 -3.20227 2.29233 -0.163373 -2.5345e-015 -5 -0 -2.47885 -0.103791 -0.349266 -1.30086 10.5219 -7.7795 1.98785e-016 1.98785e-015 3.97569e-016 86.064 -3.5732 68.7046 4.28727 -0.0820253 -68.4212 1.91145 -6.43401 -9.73593 1.98785e-016 1.98785e-015 3.97569e-016 -76.1564 5.67072 -37.356 1.41566 -4.63909 25.8923 -2.45747 -2.67912 9.76107 
-220.497 89.2863 -0.104995 1.05962 0.871454 88.9158 -2.14614 0.327377 0.796994 1.55845 9.85822 10.6135 3.30869 3.31822 0.00180633 1.05358e-015 -5 -1.59635e-015 1.64101 4.01254 -1.99478 -0.356842 9.02425 -14.0492 -3.23308 2.3008 -0.163305 -1.93815e-015 -5 -0 -2.52193 -0.0823705 -0.376727 -1.13758 10.6131 -7.59101 -3.97569e-016 1.19271e-015 -1.98785e-016 85.4804 -3.9195 69.0294 4.4942 -0.126767 -68.8702 2.02973 -6.64504 -9.7213 -3.97569e-016 1.19271e-015 -1.98785e-016 -75.466 5.65982 -37.2665 1.52269 -4.6495 25.8151 -2.63416 -2.29806 9.75803 
-220.544 89.2861 -0.101311 1.0236 0.89514 89.0062 -2.15954 0.244516 0.771479 1.569 9.87261 10.5528 3.3354 3.34966 0.00174209 2.10715e-015 -5 -3.1927e-015 1.60876 3.91876 -2.01804 -0.325791 9.1106 -14.0855 -3.21742 2.26128 -0.16323 7.50376e-016 -5 3.1927e-015 -2.57202 -0.1759 -0.404564 -1.08858 10.7802 -7.61561 -4.6984e-033 -1.35422e-015 -1.98785e-016 84.8303 -4.41188 69.1544 4.52835 -0.0244252 -68.9662 2.16266 -6.28239 -9.71257 -4.6984e-033 -1.35422e-015 -1.98785e-016 -74.6568 5.43358 -36.9702 1.85257 -4.59758 25.3391 -3.19908 -1.47431 9.75278 
-220.583 89.2859 -0.09771 1.01291 0.915467 89.0493 -2.17763 0.195612 0.753818 1.56733 9.88522 10.5566 3.34839 3.36821 0.00167756 3.04142e-015 -5 -1.59635e-015 1.60327 3.85755 -2.01283 -0.332565 9.16437 -14.1383 -3.20293 2.24745 -0.163154 -5.2181e-016 -5 -0 -2.60775 -0.281471 -0.388156 -1.18617 10.9719 -7.52765 -3.97569e-016 1.42255e-015 1.98785e-016 83.8677 -4.88953 69.3074 4.71416 -0.222957 -69.3445 2.0283 -6.14786 -9.73232 -3.97569e-016 1.42255e-015 1.98785e-016 -73.6745 5.21758 -37.0299 1.74033 -4.3299 25.9148 -3.21564 -1.51414 9.75225 
-220.623 89.2858 -0.0969048 1.03576 0.919745 89.1039 -2.17941 0.172749 0.73734 1.57721 9.90874 10.4741 3.32333 3.37972 0.00161279 1.70958e-015 -5 -3.1927e-015 1.59997 3.81536 -2.01479 -0.330341 9.26386 -14.1882 -3.19015 2.22977 -0.163075 -4.6718e-016 -5 3.1927e-015 -2.6451 -0.241574 -0.403942 -1.10638 11.0037 -7.10223 1.98785e-016 4.53478e-016 -1.98785e-016 82.9891 -5.392 69.4031 4.71857 -0.064921 -69.5515 2.27362 -6.05818 -9.70665 1.98785e-016 4.53478e-016 -1.98785e-016 -72.6359 5.07715 -37.6227 1.36164 -3.95084 27.9528 -2.58412 -2.35905 9.75644 
